<?xml version="1.0" encoding="utf-8"?>
<!-- Generator: Adobe Illustrator 19.2.1, SVG Export Plug-In . SVG Version: 6.00 Build 0)  -->
<svg version="1.1" id="Calque_1" xmlns="http://www.w3.org/2000/svg" xmlns:xlink="http://www.w3.org/1999/xlink" x="0px" y="0px"
	 viewBox="0 0 300 300" style="enable-background:new 0 0 300 300;" xml:space="preserve">
<style type="text/css">
	.st0{stroke:#000000;stroke-width:7;stroke-miterlimit:10;}
</style>
<g>
	<path class="st0" d="M86.3,265H3.5V68.5h82.8V265z M6.1,262.4h77.5V71.1H6.1V262.4z"/>
	<path class="st0" d="M185.1,265h-82.8V12.8h82.8V265z M104.9,262.4h77.5V15.5h-77.5V262.4z"/>
	<path class="st0" d="M229.9,268.5l-0.3-1.3L189.4,87L255,72.4l0.3,1.3l40.2,180.2L229.9,268.5z M192.6,89l39.3,176.3l60.4-13.5
		L253,75.5L192.6,89z"/>
	<path d="M71.3,115.4H17.3V89.4h54.1V115.4z M23.5,109.2h41.7V95.6H23.5V109.2z"/>
	<path d="M71.3,253.6H17.3v-25.9h54.1V253.6z M23.5,247.4h41.7v-13.5H23.5V247.4z"/>
	<path d="M172.1,54.4H118V28.4h54.1V54.4z M124.2,48.2h41.7V34.6h-41.7V48.2z"/>
	<path d="M170.7,253.6h-54.1v-25.9h54.1V253.6z M122.8,247.4h41.7v-13.5h-41.7V247.4z"/>
	<path d="M207.6,120.9L202.4,99l44.4-10.6l5.2,21.9L207.6,120.9z M209.9,103.6l2.3,9.8l32.4-7.7l-2.3-9.8L209.9,103.6z"/>
	<path d="M240,256.9l-5.2-21.9l44.4-10.6l5.2,21.9L240,256.9z M242.2,239.6l2.3,9.8l32.4-7.7l-2.3-9.8L242.2,239.6z"/>
	<path d="M44.8,196.5c-14.9,0-26.9-12.1-26.9-26.9s12.1-26.9,26.9-26.9s26.9,12.1,26.9,26.9S59.7,196.5,44.8,196.5z M44.8,151.5
		c-10,0-18.1,8.1-18.1,18.1s8.1,18.1,18.1,18.1s18.1-8.1,18.1-18.1S54.8,151.5,44.8,151.5z"/>
	<path d="M242.5,189.1c-10.3,0-18.7-8.4-18.7-18.7c0-10.3,8.4-18.7,18.7-18.7c10.3,0,18.7,8.4,18.7,18.7
		C261.2,180.7,252.8,189.1,242.5,189.1z M242.5,160.6c-5.4,0-9.8,4.4-9.8,9.8c0,5.4,4.4,9.8,9.8,9.8c5.4,0,9.8-4.4,9.8-9.8
		C252.3,165,247.9,160.6,242.5,160.6z"/>
	<path d="M143.6,177.9c-14.9,0-26.9-12.1-26.9-26.9s12.1-26.9,26.9-26.9c14.9,0,26.9,12.1,26.9,26.9S158.5,177.9,143.6,177.9z
		 M143.6,132.9c-10,0-18.1,8.1-18.1,18.1s8.1,18.1,18.1,18.1c10,0,18.1-8.1,18.1-18.1S153.6,132.9,143.6,132.9z"/>
</g>
</svg>
