<?xml version="1.0" encoding="utf-8"?>
<!-- Generator: Adobe Illustrator 19.2.1, SVG Export Plug-In . SVG Version: 6.00 Build 0)  -->
<svg version="1.1" id="Calque_1" xmlns="http://www.w3.org/2000/svg" xmlns:xlink="http://www.w3.org/1999/xlink" x="0px" y="0px"
	 viewBox="0 0 300 300" style="enable-background:new 0 0 300 300;" xml:space="preserve">
<g id="Arrêt_xA0_-_Orange">
</g>
<g id="Verrou">
</g>
<g>
	<path d="M251.7,299.3l-210.7,0c-0.8,0-8.4-0.6-13-8.7l-0.8-1.4l-0.6-133.8l0.3-0.9c0.3-1,3.3-10,11.9-10.6l0.3,0l24.9-0.3h125.1
		L188.9,95l0-0.1c0-0.1,0.1-11.4-4-23.4c-5.2-15-14.5-24.1-27.6-26.9c-16.2-3.5-28.7-2-36.9,4.5c-10.8,8.5-13.4,24.5-13.7,36.4
		l-0.1,5.8l-47.1,0.2l0.4-6.4c3.2-52.9,27.2-78.8,77.6-84c18.6-1.9,36.5,2.1,51.9,11.5l0,0c3.9,2.3,32,20.5,39.7,62.3
		c0.4,1.6,2.9,13.1,2.9,26.5v42.2h20.9l0.9,0.3c3.7,1.2,9.9,5.5,9.9,13.7c0,6-0.2,127.1-0.2,128.3l0,0.4l-0.1,0.4
		c-0.5,3.4-3.3,9.7-10.6,12.2L251.7,299.3z M41.5,287.3h208c1.1-0.6,1.6-1.6,1.7-2c0-9.6,0.2-122,0.2-127.7c0-1-0.6-1.6-1.2-2h-30.5
		v-54.2c0-12.8-2.6-23.8-2.6-23.9l-0.1-0.3c-6.8-37.4-31.7-52.9-33.9-54.2l-0.3-0.2c-13.1-8-28.4-11.4-44.4-9.8
		C96,17.4,76.5,36.8,72.2,79.5l22.7-0.1c1.4-17.9,7.6-31.6,17.9-39.7c11.2-8.8,27-11.1,46.9-6.8c17.4,3.8,30,15.9,36.5,35.1
		c4.6,13.5,4.6,25.9,4.6,27.1l0.3,60.6H64L39.6,156c-0.3,0.3-0.8,0.9-1,1.5l0.6,128.3C40.3,287,41.3,287.3,41.5,287.3z"/>
	<path d="M171.6,251.7h-53l12.8-39.3c-3-2.4-7.6-7-8.9-13.5c-1.2-6,0.5-12,5.1-18l0.4-0.4c5.3-5.3,18.9-12.2,32.5-0.2l0.3,0.3
		c0.3,0.3,6.5,7.1,5.8,16.3c-0.4,5.4-3.1,10.3-8,14.7L171.6,251.7z M129.6,243.7h31l-11.3-35.1l2.2-1.7c4.4-3.3,6.7-7,7.1-10.7
		c0.4-5.1-2.9-9.3-3.6-10.1c-10.5-9.1-19.5-1.7-21.2-0.2c-3,4-4.2,7.8-3.5,11.4c1.2,6.2,7.7,10,7.7,10.1l2.8,1.6L129.6,243.7z"/>
</g>
</svg>
