<?xml version="1.0" encoding="utf-8"?>
<!-- Generator: Adobe Illustrator 19.2.1, SVG Export Plug-In . SVG Version: 6.00 Build 0)  -->
<svg version="1.1" id="Calque_1" xmlns="http://www.w3.org/2000/svg" xmlns:xlink="http://www.w3.org/1999/xlink" x="0px" y="0px"
	 viewBox="0 0 300 300" style="enable-background:new 0 0 300 300;" xml:space="preserve">
<g>
	<path d="M150.3,1C107.5,1,68,18.6,39.9,49.8V20.2H10.6v62.7c0,8.1,6.6,14.6,14.6,14.6h62.7V68.3H62.7c22.6-24.3,54-38.1,87.6-38.1
		c66.2,0,120,53.8,120,120c0,66.2-53.8,120-120,120c-66.2,0-120-53.8-120-120v-5H1v5c0,82.3,67,149.3,149.3,149.3
		s149.3-67,149.3-149.3S232.5,1,150.3,1z"/>
	<path d="M144.5,106.3c-6.1,0-11,4.9-11,11v48.1c0,0.2,0,0.5,0,0.7c-0.3,4.9,2.7,9.4,7.3,11.1l45.3,16c1.2,0.4,2.4,0.6,3.6,0.6
		c4.5,0,8.8-2.8,10.4-7.3c2-5.7-1-12-6.7-14l-38-13.4v-41.8C155.5,111.2,150.5,106.3,144.5,106.3z"/>
</g>
</svg>
