<?xml version="1.0" encoding="utf-8"?>
<!-- Generator: Adobe Illustrator 19.2.1, SVG Export Plug-In . SVG Version: 6.00 Build 0)  -->
<svg version="1.1" id="Calque_1" xmlns="http://www.w3.org/2000/svg" xmlns:xlink="http://www.w3.org/1999/xlink" x="0px" y="0px"
	 viewBox="0 0 512 512" style="enable-background:new 0 0 512 512;" xml:space="preserve">
<g>
	<path d="M194.9,379.4c-1.7,0-3.3-0.4-4.8-1.3c-3.2-1.8-5.2-5.1-5.2-8.8V141.1c0-3.6,2-7,5.2-8.8c3.2-1.8,7.1-1.7,10.2,0.3
		l182,114.1c2.9,1.8,4.7,5,4.7,8.5s-1.8,6.6-4.7,8.5l-182,114.1C198.6,378.9,196.8,379.4,194.9,379.4z M204.9,159.2v192.1
		l153.2-96.1L204.9,159.2z"/>
	<path d="M256.5,510.7c-67.9,0-131.7-26.4-179.7-74.4c-48-48-74.4-111.8-74.4-179.7S28.8,124.8,76.8,76.8
		c48-48,111.8-74.4,179.7-74.4s131.7,26.4,179.7,74.4c48,48,74.4,111.8,74.4,179.7s-26.4,131.7-74.4,179.7
		C388.2,484.3,324.4,510.7,256.5,510.7z M256.5,22.4c-129.1,0-234.2,105-234.2,234.2c0,129.1,105,234.2,234.2,234.2
		c129.1,0,234.2-105,234.2-234.2C490.7,127.4,385.6,22.4,256.5,22.4z"/>
</g>
</svg>
