<?xml version="1.0" encoding="utf-8"?>
<!-- Generator: Adobe Illustrator 19.2.1, SVG Export Plug-In . SVG Version: 6.00 Build 0)  -->
<svg version="1.1" id="Calque_1" xmlns="http://www.w3.org/2000/svg" xmlns:xlink="http://www.w3.org/1999/xlink" x="0px" y="0px"
	 viewBox="0 0 512 512" style="enable-background:new 0 0 512 512;" xml:space="preserve">
<style type="text/css">
	.st0{fill:#1D1D1B;}
	.st1{fill:#FFFFFF;}
</style>
<polygon points="21.2,165.9 10.8,148.8 254.4,0.3 495.9,148.8 485.5,165.9 254.4,23.7 "/>
<rect x="87.6" y="185.6" width="20" height="259.3"/>
<rect x="403.3" y="185.6" width="20" height="259.3"/>
<rect x="16" y="491.3" width="474.7" height="20"/>
<g>
	<path class="st0" d="M326.9,225v136.9l44.2-44.2l8.6,8.6l-54.6,54.6c-2.4,2.4-6.2,2.4-8.6,0L262,326.3l8.6-8.6l44.2,44.2V225H326.9
		z"/>
	<path class="st1" d="M320.8,383c-1.7,0-3.3-0.7-4.6-1.9l-54.8-54.8l9.1-9.1l43.8,43.8V224.6h12.9V361l43.8-43.8l9.1,9.1l-54.8,54.8
		C324.1,382.3,322.5,383,320.8,383z M262.5,326.3l54.3,54.3c1.1,1.1,2.5,1.7,4,1.7c1.5,0,2.9-0.6,4-1.7l54.3-54.3l-8-8l-44.6,44.6
		V225.4h-11.4v137.4l-44.6-44.6L262.5,326.3z"/>
</g>
<g>
	<path class="st0" d="M179.8,387.9V251l-44.2,44.2l-8.6-8.6l54.6-54.6c2.4-2.4,6.2-2.4,8.6,0l54.6,54.6l-8.6,8.6L192,251v136.9
		H179.8z"/>
	<path class="st1" d="M192.3,388.3h-12.9V251.9l-43.8,43.8l-9.1-9.1l54.8-54.8c2.5-2.5,6.6-2.5,9.1,0l54.8,54.8l-9.1,9.1l-43.8-43.8
		V388.3z M180.2,387.6h11.4V250.1l44.6,44.6l8-8l-54.3-54.3c-2.2-2.2-5.8-2.2-8,0l-54.3,54.3l8,8l44.6-44.6V387.6z"/>
</g>
</svg>
