<?xml version="1.0" encoding="utf-8"?>
<!-- Generator: Adobe Illustrator 19.2.1, SVG Export Plug-In . SVG Version: 6.00 Build 0)  -->
<svg version="1.1" id="Calque_1" xmlns="http://www.w3.org/2000/svg" xmlns:xlink="http://www.w3.org/1999/xlink" x="0px" y="0px"
	 viewBox="0 0 300 300" style="enable-background:new 0 0 300 300;" xml:space="preserve">
<g id="Arrêt_xA0_-_Orange">
</g>
<g id="Verrou">
</g>
<path d="M198.7,81.3l16.8-9.9c0,0,20.3-14.3,36.6-10.9c0,0,35.6,0,45.5,43c0,0,6.4,24.2-11.4,41.6c0,0-68.3,45-126.7,72.7
	c0,0-48.9,7.4-60.3-50c-3.3-16.6,10.4-36.6,24.2-44.7c5.2-3.1,18.3-7.8,22.6-0.9c3.8,6-2.8,12.9-8.2,14.4c0,0-20.3,12.9-19.3,28.2
	c0,0,2.5,24.7,21.3,33.1c0,0,17.3,5.4,32.6-5.9l95.5-55.4c0,0,22.8-16.3,6.4-43c0,0-7.9-16.3-29.7-15.3l-4,0.5
	c0,0-26.7,14.3-28.7,16.3C212,95.2,193.2,101.6,198.7,81.3z"/>
<path d="M148.2,176.2c1.7-0.2,3.3-0.6,4.8-1.2c15-6.1,34.8-16.7,40.1-33.1c0,0,17.8-30.8-14.4-60.9c0,0-17.8-17.7-41.7-11
	c0,0-73.2,36.6-126.4,73.2c0,0-30.9,38.6,13,77.2c0,0,30.1,19.1,58.4-5.1c4.8-2.9,8.5-10.1,3.6-14.7c-6.8-6.4-17,2.9-23.3,5.2
	c-8.1,2.9-18.8,4.5-26.4-0.6c0,0-20.2-14.5-18-35c0,0,4-17.7,21.5-25.3l95.8-54.9c0,0,25.5-11.5,40.5,16
	c13.1,24-10.5,47.3-32.5,53.2c-2.4,0.6-5.2,6.6-5.3,8.7C137.6,174.9,143,176.7,148.2,176.2z"/>
</svg>
