<?xml version="1.0" encoding="utf-8"?>
<!-- Generator: Adobe Illustrator 19.2.1, SVG Export Plug-In . SVG Version: 6.00 Build 0)  -->
<svg version="1.1" id="Calque_1" xmlns="http://www.w3.org/2000/svg" xmlns:xlink="http://www.w3.org/1999/xlink" x="0px" y="0px"
	 viewBox="0 0 512 512" style="enable-background:new 0 0 512 512;" xml:space="preserve">
<g id="doollar_de_diana">
</g>
<g>
	<path d="M95.8,142.5h97.4c5.5,0,10-4.5,10-10s-4.5-10-10-10H95.8c-5.5,0-10,4.5-10,10S90.3,142.5,95.8,142.5z"/>
	<path d="M221.8,391.6h-130c-5.5,0-10,4.5-10,10s4.5,10,10,10h130c5.5,0,10-4.5,10-10S227.4,391.6,221.8,391.6z"/>
	<path d="M91.8,209.8h225.4c5.5,0,10-4.5,10-10s-4.5-10-10-10H91.8c-5.5,0-10,4.5-10,10S86.3,209.8,91.8,209.8z"/>
	<path d="M247.9,324.3H91.8c-5.5,0-10,4.5-10,10s4.5,10,10,10h156.1c5.5,0,10-4.5,10-10S253.5,324.3,247.9,324.3z"/>
	<path d="M317.2,256H91.8c-5.5,0-10,4.5-10,10s4.5,10,10,10h225.4c5.5,0,10-4.5,10-10S322.8,256,317.2,256z"/>
</g>
<path d="M500.7,330.4L459.2,289c-5.7-5.7-15-5.7-20.7,0L298.6,428.9c-1,1-1.7,2.2-2,3.5l-15.5,67.4c-0.6,2.5,0.2,5,2,6.8
	c1.8,1.8,4.4,2.5,6.8,2l67.4-15.6c1.3-0.3,2.6-1,3.5-2l139.9-139.9C506.4,345.5,506.4,336.2,500.7,330.4z M490.3,340.8l-15.5,15.5
	l-41.5-41.5l15.5-15.5L490.3,340.8z M469.6,361.5l-5.2,5.2L423,325.3l5.2-5.2L469.6,361.5z M298,491.7l12.4-53.9l107.4-107.4
	l41.5,41.5L351.9,479.3L298,491.7z"/>
<path d="M279.3,2H6v509h241.9v-20H26V22h229.5v127.5h127.4v139.6h20V128.4L279.3,2z M275.5,26.8L376,129.5H275.5V26.8z"/>
</svg>
