<?xml version="1.0" encoding="utf-8"?>
<!-- Generator: Adobe Illustrator 19.2.1, SVG Export Plug-In . SVG Version: 6.00 Build 0)  -->
<svg version="1.1" id="Calque_1" xmlns="http://www.w3.org/2000/svg" xmlns:xlink="http://www.w3.org/1999/xlink" x="0px" y="0px"
	 viewBox="0 0 512 512" style="enable-background:new 0 0 512 512;" xml:space="preserve">
<style type="text/css">
	.st0{fill:none;stroke:#000000;stroke-width:12;stroke-miterlimit:10;}
</style>
<g id="doollar_de_diana">
	<g>
		<g>
			<path d="M481.3,149h-84.8c-16.9,0-30.6-13.7-30.6-30.6V33.6c0-16.9,13.7-30.6,30.6-30.6h84.8c16.9,0,30.6,13.7,30.6,30.6v84.8
				C511.9,135.3,498.1,149,481.3,149z M396.5,15c-10.3,0-18.6,8.4-18.6,18.6v84.8c0,10.3,8.4,18.6,18.6,18.6h84.8
				c10.3,0,18.6-8.4,18.6-18.6V33.6c0-10.3-8.4-18.6-18.6-18.6H396.5z"/>
			<rect x="2" y="120" width="341" height="12"/>
		</g>
		<polygon points="489.7,51.9 429.8,116 387.2,76.5 377,87.6 430.5,137.2 434.3,133 434.4,133.1 500.7,62.2 		"/>
	</g>
	<g>
		<g>
			<path class="st0" d="M481.3,325.5h-84.8c-13.5,0-24.6-11.1-24.6-24.6v-84.8c0-13.5,11.1-24.6,24.6-24.6h84.8
				c13.5,0,24.6,11.1,24.6,24.6v84.8C505.9,314.4,494.8,325.5,481.3,325.5z"/>
			<rect x="2" y="302.5" width="341" height="12"/>
		</g>
		<polygon points="489.7,234.4 429.8,298.5 387.2,259 377,270.1 430.5,319.7 434.3,315.5 434.4,315.6 500.7,244.7 		"/>
	</g>
	<g>
		<g>
			<path class="st0" d="M481.3,502h-84.8c-13.5,0-24.6-11.1-24.6-24.6v-84.8c0-13.5,11.1-24.6,24.6-24.6h84.8
				c13.5,0,24.6,11.1,24.6,24.6v84.8C505.9,490.9,494.8,502,481.3,502z"/>
			<rect x="2" y="479" width="341" height="12"/>
		</g>
		<polygon points="489.7,410.9 429.8,475 387.2,435.5 377,446.6 430.5,496.2 434.3,492 434.4,492.1 500.7,421.2 		"/>
	</g>
</g>
</svg>
