<?xml version="1.0" encoding="utf-8"?>
<!-- Generator: Adobe Illustrator 19.2.1, SVG Export Plug-In . SVG Version: 6.00 Build 0)  -->
<svg version="1.1" id="Calque_1" xmlns="http://www.w3.org/2000/svg" xmlns:xlink="http://www.w3.org/1999/xlink" x="0px" y="0px"
	 viewBox="0 0 300 300" style="enable-background:new 0 0 300 300;" xml:space="preserve">
<g id="Arrêt_xA0_-_Orange">
</g>
<g id="Verrou">
</g>
<path d="M267.3,289l0-130.6c0.1-6-6.1-8.3-6.1-8.3h-27V99.8c0-35-15.5-60.3-16.2-61.4l-0.1-0.2C198.2,7.3,171.2,0.8,152,0.7
	c-0.1,0-0.1,0-0.2,0c-19.2,0-33.9,6.4-36,7.4c-48.4,22-50.5,77.7-50.6,80l0,61.9H41.7c-8.8,0.5-9.1,8.3-9.1,8.3s0,130.2,0,132.3
	c0,2.1,0.6,3.4,0.6,3.4c2.3,5.8,8.4,5.9,8.4,5.9h217c3.5-0.2,6.3-3.1,6.3-3.1c2.5-2.6,2.4-6.3,2.4-6.3V289z M97.3,88.9
	c0.1-2.6,2.4-38.3,31.9-51.7l0.1-0.1c0.1,0,10.1-4.4,22.5-4.4c0,0,0.1,0,0.1,0c16.5,0,29.2,7.4,39,22.6c0.8,1.3,11.3,19.7,11.3,44.5
	V150H97.3V88.9z M128.1,252.5l12.5-38.5c-8-3.9-12.3-12.7-9.8-21.3c3-10.4,14.8-16.3,25.5-12.2c8.1,3.1,13.1,11.4,11.8,19.7
	c-0.9,5.6-4.1,10.2-8.9,13l12.7,39.3H128.1z"/>
</svg>
