<?xml version="1.0" encoding="utf-8"?>
<!-- Generator: Adobe Illustrator 19.2.1, SVG Export Plug-In . SVG Version: 6.00 Build 0)  -->
<svg version="1.1" id="Calque_1" xmlns="http://www.w3.org/2000/svg" xmlns:xlink="http://www.w3.org/1999/xlink" x="0px" y="0px"
	 viewBox="0 0 311.8 170.1" style="enable-background:new 0 0 311.8 170.1;" xml:space="preserve">
<g>
	<g>
		<path d="M0,137.9h14.2V0H0V137.9z M144.7,35.4c-12.1,0-23.5,4.1-32.8,11.5c-9-7.2-20.4-11.5-32.7-11.5
			c-28.9,0-52.4,23.5-52.4,52.4s23.5,52.4,52.4,52.4c12.1,0,23.5-4.1,32.8-11.5c9,7.2,20.4,11.5,32.7,11.5
			c28.9,0,52.4-23.5,52.4-52.4S173.6,35.4,144.7,35.4z M144.7,126.1c-21.1,0-38.3-17.2-38.3-38.3H92.3c0,11.4,3.7,22,9.9,30.6
			c-6.6,5-14.5,7.7-23,7.7c-21.1,0-38.3-17.2-38.3-38.3c0-21.1,17.2-38.3,38.3-38.3s38.3,17.2,38.3,38.3h14.2
			c0-11.4-3.7-22-9.9-30.6c6.6-5,14.5-7.7,23-7.7c21.1,0,38.3,17.2,38.3,38.3C183,109,165.8,126.1,144.7,126.1z M259.4,35.4
			c-13.9,0-26.4,6.1-35.4,15.8V37.8h-14.2v132.2h14.2v-45.6c9,9.7,21.6,15.8,35.4,15.8c28.9,0,52.4-23.5,52.4-52.4
			S288.3,35.4,259.4,35.4z M259.4,126.1c-19.5,0-35.4-17.2-35.4-38.3c0-21.1,15.9-38.3,35.4-38.3c21.1,0,38.3,17.2,38.3,38.3
			C297.6,109,280.5,126.1,259.4,126.1z"/>
	</g>
</g>
</svg>
