<?xml version="1.0" encoding="utf-8"?>
<!-- Generator: Adobe Illustrator 19.2.1, SVG Export Plug-In . SVG Version: 6.00 Build 0)  -->
<svg version="1.1" id="Calque_1" xmlns="http://www.w3.org/2000/svg" xmlns:xlink="http://www.w3.org/1999/xlink" x="0px" y="0px"
	 viewBox="0 0 300 300" style="enable-background:new 0 0 300 300;" xml:space="preserve">
<path d="M207.7,57.7c-21.3,0-41.4,7.1-57.7,20.3c-15.8-12.7-35.8-20.3-57.6-20.3C41.4,57.7,0,99.1,0,150c0,50.9,41.4,92.3,92.3,92.3
	c21.3,0,41.4-7.1,57.7-20.3c15.8,12.7,35.8,20.3,57.6,20.3c50.9,0,92.3-41.4,92.3-92.3C300,99.1,258.6,57.7,207.7,57.7z
	 M207.7,217.4c-37.1,0-67.4-30.2-67.4-67.4h-25c0,20.1,6.5,38.7,17.4,53.9c-11.6,8.8-25.6,13.5-40.5,13.5
	C55.2,217.4,25,187.1,25,150s30.2-67.4,67.4-67.4c37.1,0,67.4,30.2,67.4,67.4h25c0-20.1-6.5-38.7-17.4-53.9
	c11.6-8.8,25.6-13.5,40.5-13.5c37.1,0,67.4,30.2,67.4,67.4S244.8,217.4,207.7,217.4z"/>
</svg>
