<?xml version="1.0" encoding="utf-8"?>
<!-- Generator: Adobe Illustrator 19.2.1, SVG Export Plug-In . SVG Version: 6.00 Build 0)  -->
<svg version="1.1" id="Calque_1" xmlns="http://www.w3.org/2000/svg" xmlns:xlink="http://www.w3.org/1999/xlink" x="0px" y="0px"
	 viewBox="0 0 300 300" style="enable-background:new 0 0 300 300;" xml:space="preserve">
<g>
	<path d="M152.6,103.1c-29.8,27.7-28.4,63.9-28.3,65.4l12.8-0.6c0-0.3-1-32,24.4-55.6c22.4-20.8,58-29.5,106-26l-24.5,25.3l9.2,8.9
		l37.9-39.2l0,0l0.9-0.9l-38.6-38.6l-9.1,9.1L266,73.4C215.4,70.1,177.3,80.1,152.6,103.1z"/>
	<polygon points="287.1,163.3 287.1,286.3 12.9,286.3 12.9,12.9 182.1,12.9 182.1,0 0,0 0,299.1 300,299.1 300,163.3 	"/>
</g>
</svg>
