<?xml version="1.0" encoding="utf-8"?>
<!-- Generator: Adobe Illustrator 19.2.1, SVG Export Plug-In . SVG Version: 6.00 Build 0)  -->
<svg version="1.1" id="Calque_1" xmlns="http://www.w3.org/2000/svg" xmlns:xlink="http://www.w3.org/1999/xlink" x="0px" y="0px"
	 viewBox="0 0 512 512" style="enable-background:new 0 0 512 512;" xml:space="preserve">
<g>
	<path d="M300.4,481.5c-17.4,0-35,0.7-52.1,1.3c-40.7,1.5-82.7,3.1-123.1-4.4c-63.6-11.8-94.4-45.9-97-107.4
		c-0.3-8.2-0.2-16.7-0.1-24.9c0.1-4.2,0.1-8.6,0.1-12.8V110c0.2-2,1.7-17.6,10.3-35c11.8-24,31.1-40.5,57.3-49.1
		c23.3-0.3,308.7-3.9,309.3-3.9c0.2,0,0.5,0,0.7,0c36.4,0,66.5,34.8,75,69.1v256.3c0,5.5,4.5,10,10,10s10-4.5,10-10V88.8l-0.3-1.1
		C490.8,46,454.3,2,405.9,2c-0.3,0-0.7,0-1,0C404.3,2,94.1,6,94.1,6l-1.5,0l-1.4,0.4c-40.6,12.8-61,40-71,60.5
		c-10.7,22.1-11.9,41.4-12,42.2l0,0.3v223.8c0,4.2-0.1,8.4-0.1,12.6c-0.1,8.5-0.2,17.3,0.1,26c1.5,35.8,12.1,64.6,31.6,85.7
		c18.8,20.3,46.3,34,81.7,40.6c25.1,4.7,50.4,6,75.5,6c17.5,0,34.8-0.7,52-1.3c16.9-0.6,34.3-1.3,51.3-1.3c5.5,0,10-4.5,10-10
		S305.9,481.5,300.4,481.5z"/>
	<path d="M205.5,68.7c-4.1-3.7-10.4-3.3-14.1,0.8l-62.7,69.9l-37-29.6c-4.3-3.5-10.6-2.8-14.1,1.6c-3.5,4.3-2.8,10.6,1.6,14.1
		l44.4,35.5c1.8,1.5,4,2.2,6.2,2.2c2.7,0,5.5-1.1,7.4-3.3l69.1-77C209.9,78.7,209.6,72.4,205.5,68.7z"/>
	<path d="M205.5,199.1c-4.1-3.7-10.4-3.3-14.1,0.8l-62.7,69.9l-37-29.6c-4.3-3.5-10.6-2.8-14.1,1.6c-3.5,4.3-2.8,10.6,1.6,14.1
		l44.4,35.5c1.8,1.5,4,2.2,6.2,2.2c2.7,0,5.5-1.1,7.4-3.3l69.1-77C209.9,209.1,209.6,202.8,205.5,199.1z"/>
	<path d="M205.5,329.4c-4.1-3.7-10.4-3.3-14.1,0.8l-62.7,69.9l-37-29.6c-4.3-3.5-10.6-2.8-14.1,1.6c-3.5,4.3-2.8,10.6,1.6,14.1
		l44.4,35.5c1.8,1.5,4,2.2,6.2,2.2c2.7,0,5.5-1.1,7.4-3.3l69.1-77C209.9,339.5,209.6,333.1,205.5,329.4z"/>
	<path d="M422.7,114.5H254.4c-5.5,0-10,4.5-10,10s4.5,10,10,10h168.3c5.5,0,10-4.5,10-10S428.3,114.5,422.7,114.5z"/>
	<path d="M422.7,243H254.4c-5.5,0-10,4.5-10,10c0,5.5,4.5,10,10,10h168.3c5.5,0,10-4.5,10-10C432.7,247.5,428.3,243,422.7,243z"/>
	<path d="M497.9,495.3l-69.1-69.1l58-34.5L322.1,334l59.6,165.9l31.2-61.4l70.9,70.9c2,2,4.5,2.9,7.1,2.9s5.1-1,7.1-2.9
		C501.8,505.5,501.8,499.2,497.9,495.3z M384.8,449.6l-29.7-82.8l84.6,29.6L399.9,420L384.8,449.6z"/>
</g>
</svg>
