<?xml version="1.0" encoding="utf-8"?>
<!-- Generator: Adobe Illustrator 19.2.1, SVG Export Plug-In . SVG Version: 6.00 Build 0)  -->
<svg version="1.1" id="Calque_1" xmlns="http://www.w3.org/2000/svg" xmlns:xlink="http://www.w3.org/1999/xlink" x="0px" y="0px"
	 viewBox="0 0 300 300" style="enable-background:new 0 0 300 300;" xml:space="preserve">
<g id="Coche">
	<g id="Calculatrice">
		<g id="Liste_de_vérification">
		</g>
	</g>
	<g id="Verrou">
	</g>
</g>
<g>
	<g>
		<path d="M49.5,261.3l-10,0L39.8,60l0-25.4c0.7-9.3,3.2-11,4.2-11.7c1.1-0.8,2.5-1.1,3.8-0.9h56.8v10H50.2c-0.2,1-0.3,2.1-0.4,3.2
			V60L49.5,261.3z"/>
	</g>
	<g>
		<path d="M237.8,261.3L237.6,60V35.7c-0.4-1.3-1.6-3.9-2.8-3.7l-0.5,0l-49.9,0l0-10l49.7,0c7.2-0.6,12,5.7,13.4,11.9l0.1,0.6V60
			l0.2,201.3L237.8,261.3z"/>
	</g>
	<g>
		<path d="M52.2,299.3c-6.7,0-11.2-6-12.6-11.9l-0.1-0.6v-25.6h10v24.3c0.4,1.1,1.5,3.7,2.8,3.7c0,0,0.1,0,0.1,0l0.5,0h183.3v10
			H53.1C52.8,299.3,52.5,299.3,52.2,299.3z"/>
	</g>
	<g>
		<path d="M235.1,299.3c-0.4,0-0.8,0-1.2-0.1l1-9.9c1.3,0.1,2.4-2.5,2.8-3.7v-24.3h10v25.6l-0.1,0.6
			C246.3,293.3,241.8,299.3,235.1,299.3z"/>
	</g>
	<path d="M226.3,261.3H61.7V47h164.7V261.3z M71.7,251.3h144.7V57H71.7V251.3z"/>
	<path d="M202,106.5H85.7c-2.8,0-5-2.2-5-5s2.2-5,5-5H202c2.8,0,5,2.2,5,5S204.8,106.5,202,106.5z"/>
	<path d="M202,160.3H85.7c-2.8,0-5-2.2-5-5s2.2-5,5-5H202c2.8,0,5,2.2,5,5S204.8,160.3,202,160.3z"/>
	<path d="M202,219.1H85.7c-2.8,0-5-2.2-5-5s2.2-5,5-5H202c2.8,0,5,2.2,5,5S204.8,219.1,202,219.1z"/>
	<path d="M189.3,57H99.7V11.7H120c9.1-7.9,28.2-16.3,46.6,0h22.7V57z M109.7,47h69.7V21.7h-16.7l-1.5-1.4
		c-17.9-17.3-35-0.8-35.7-0.1l-1.5,1.5h-14.4V47z"/>
</g>
</svg>
