<?xml version="1.0" encoding="utf-8"?>
<!-- Generator: Adobe Illustrator 19.2.1, SVG Export Plug-In . SVG Version: 6.00 Build 0)  -->
<svg version="1.1" id="Calque_1" xmlns="http://www.w3.org/2000/svg" xmlns:xlink="http://www.w3.org/1999/xlink" x="0px" y="0px"
	 viewBox="0 0 300 300" style="enable-background:new 0 0 300 300;" xml:space="preserve">
<g id="Coche">
	<g id="Calculatrice">
		<g id="Liste_de_vérification">
		</g>
	</g>
	<g id="Verrou">
	</g>
</g>
<g>
	<path d="M294.7,282.7H5.6c-2.8,0-5-2.2-5-5V27.3c0-2.8,2.2-5,5-5h289.1c2.8,0,5,2.2,5,5v250.3C299.7,280.4,297.4,282.7,294.7,282.7
		z M10.6,272.7h279.1V32.3H10.6V272.7z"/>
	<path d="M97.8,62.5h-70c-2.8,0-5-2.2-5-5s2.2-5,5-5h70c2.8,0,5,2.2,5,5S100.6,62.5,97.8,62.5z"/>
	<path d="M139.2,62.5h-26c-2.8,0-5-2.2-5-5s2.2-5,5-5h26c2.8,0,5,2.2,5,5S142,62.5,139.2,62.5z"/>
	<g>
		<path d="M73.1,164.6c-1.4,0-2.8-0.6-3.8-1.8c-1.8-2.1-1.5-5.3,0.6-7l24.7-21.1c2.1-1.8,5.3-1.5,7,0.6c1.8,2.1,1.5,5.3-0.6,7
			l-24.7,21.1C75.4,164.2,74.2,164.6,73.1,164.6z"/>
		<path d="M97.8,186.6c-1.2,0-2.4-0.4-3.3-1.3l-24.7-22c-2.1-1.8-2.2-5-0.4-7.1c1.8-2.1,5-2.2,7.1-0.4l24.7,22
			c2.1,1.8,2.2,5,0.4,7.1C100.5,186,99.2,186.6,97.8,186.6z"/>
		<path d="M229,164.6H76.5c-2.8,0-5-2.2-5-5s2.2-5,5-5H229c2.8,0,5,2.2,5,5S231.7,164.6,229,164.6z"/>
	</g>
	<g>
		<path d="M229,218.8c-1.1,0-2.3-0.4-3.2-1.2L201,196.5c-2.1-1.8-2.4-4.9-0.6-7c1.8-2.1,5-2.3,7-0.6l24.7,21.1
			c2.1,1.8,2.4,4.9,0.6,7C231.8,218.2,230.4,218.8,229,218.8z"/>
		<path d="M204.2,240.8c-1.4,0-2.7-0.6-3.7-1.7c-1.8-2.1-1.7-5.2,0.4-7.1l24.7-22c2.1-1.8,5.2-1.7,7.1,0.4s1.7,5.2-0.4,7.1l-24.7,22
			C206.6,240.4,205.4,240.8,204.2,240.8z"/>
		<path d="M225.6,218.8H73.1c-2.8,0-5-2.2-5-5s2.2-5,5-5h152.5c2.8,0,5,2.2,5,5S228.3,218.8,225.6,218.8z"/>
	</g>
	<path d="M291.4,93.1H9.1c-2.8,0-5-2.2-5-5s2.2-5,5-5h282.2c2.8,0,5,2.2,5,5S294.1,93.1,291.4,93.1z"/>
</g>
</svg>
