<?xml version="1.0" encoding="utf-8"?>
<!-- Generator: Adobe Illustrator 19.2.1, SVG Export Plug-In . SVG Version: 6.00 Build 0)  -->
<svg version="1.1" id="Calque_1" xmlns="http://www.w3.org/2000/svg" xmlns:xlink="http://www.w3.org/1999/xlink" x="0px" y="0px"
	 viewBox="0 0 512 512" style="enable-background:new 0 0 512 512;" xml:space="preserve">
<g id="doollar_de_diana">
</g>
<g>
	<path d="M499.4,383.1l-52.2-51.4c-5.8-5.7-15.1-5.6-20.8,0.2c-5.7,5.8-5.6,15.1,0.2,20.8l32.4,31.9l-8.9-0.4l-0.7,0
		c-45.5,2.4-62.9-4.3-65.4-5.4l-0.4-0.3l-1.7-0.7c-39.8-15.5-69.7-63.6-91.5-98.7c-14.4-23.1-27.8-47.4-40.9-70.9
		c-8.3-14.9-16.8-30.3-25.5-45.3c-10-17.3-22.8-28.5-36.2-39.5c-10.5-8.6-37.8-28.7-63.9-28.7h-109C6.6,94.7,0,101.3,0,109.5
		s6.6,14.7,14.7,14.7h109c11.2,0,28.9,8.6,45.2,22c11.6,9.5,21.8,18.5,29.4,31.5c25.2,43.3,49.2,86.7,74.6,130.1
		c23.3,39.8,53,79.5,97.3,97.2c6.2,3.1,27.7,11.3,79.9,8.7l8.6,0.4l-32.1,31c-5.9,5.7-6,15-0.4,20.8c2.9,3,6.7,4.5,10.6,4.5
		c3.7,0,7.4-1.4,10.2-4.1l52.1-50.3c4.5-4.3,7-10.2,7-16.4C506.3,393.3,503.8,387.5,499.4,383.1z"/>
	<path d="M505,92.5l-52.1-50.3c-5.9-5.7-15.2-5.5-20.8,0.4c-5.7,5.9-5.5,15.2,0.4,20.8l32,30.9l-7.3,0.2
		c-45.1-1.6-63.9,3.3-69.8,5.4c-46.2,13.1-77.3,50.5-100,77.9l-0.3,0.3c-5.2,6.3-4.3,15.5,1.9,20.7c2.8,2.3,6.1,3.4,9.4,3.4
		c4.2,0,8.4-1.8,11.3-5.3l0.3-0.3c21.5-25.8,48.2-58,85.8-68.5l1.4-0.4l0.5-0.2c2.4-0.8,18.2-5,58.9-3.5l0.5,0l7.6-0.3l-32.5,31.9
		c-5.8,5.7-5.9,15-0.2,20.8c2.9,2.9,6.7,4.4,10.5,4.4c3.7,0,7.5-1.4,10.3-4.2l52.2-51.4c4.4-4.4,6.9-10.2,6.9-16.5
		C512,102.6,509.5,96.8,505,92.5z M397.9,127.4l0.5-0.3C398.4,127.1,398.3,127.2,397.9,127.4z"/>
	<path d="M66.8,421.2c-5.9,0-12.5-0.1-19.8-0.4l-9.3,0.3c-8.1,0.3-14.9-6.2-15.1-14.3c-0.2-8.1,6.2-14.9,14.3-15.1l10.3-0.3l0.5,0
		c41.4,1.8,57.1-2.6,59.1-3.2l1.1-0.6l0.6,0c37.7-10.3,64.6-42.3,86.3-68l0.3-0.3c5.2-6.2,14.5-7,20.8-1.8c6.2,5.2,7,14.5,1.8,20.8
		l-0.3,0.3c-22.9,27.2-54.2,64.4-100.4,77.2C112.6,417.4,98.6,421.2,66.8,421.2z M106.7,388.2L106.7,388.2L106.7,388.2z"/>
</g>
</svg>
