<?xml version="1.0" encoding="utf-8"?>
<!-- Generator: Adobe Illustrator 19.2.1, SVG Export Plug-In . SVG Version: 6.00 Build 0)  -->
<svg version="1.1" id="Calque_1" xmlns="http://www.w3.org/2000/svg" xmlns:xlink="http://www.w3.org/1999/xlink" x="0px" y="0px"
	 viewBox="0 0 512 512" style="enable-background:new 0 0 512 512;" xml:space="preserve">
<g>
	<path d="M332.4,1.3H66.7v508.4h386.8V123.5L332.4,1.3z M334,31.4l83.4,84.1H334V31.4z M86.7,489.7V21.3H314v114.2h119.5v354.2H86.7
		z"/>
	<path d="M249.3,420.4l-0.8,0.1c-27.5,5-43-7.4-43.5-7.9l-0.3-0.3l-0.5-0.3c-7.5-5.2-12.1-12.8-15-20.1H241v-20h-56.3
		c-0.1-1.9-0.1-3.1-0.1-3.1l0-0.4l0-0.4c-0.3-4.7-0.2-9,0.1-13H241v-20h-51.7c7.2-16.8,19.6-22,20.9-22.5l0.7-0.3
		c41.2-17.8,62.1,10.8,63,12.1l8.2-5.7l8.2-5.7c-0.8-1.2-8.2-11.5-22.5-19c-13.4-7-35.4-12.7-64.6-0.1c-3.7,1.4-26.3,11.2-35.2,41.2
		h-22.3v20h18.9c-0.3,4.3-0.3,9,0,13.9c0,0.6,0,1.6,0.1,3h-19v20H168c3.5,12.1,10.4,26.4,24.3,36.3c3,2.4,18.3,13.5,43.4,13.5
		c5,0,10.3-0.4,16-1.5c3.7-0.5,20.1-3.6,35.1-23.4l-15.9-12.1C260.7,418.2,250.6,420.2,249.3,420.4z"/>
</g>
</svg>
