<?xml version="1.0" encoding="utf-8"?>
<!-- Generator: Adobe Illustrator 19.2.1, SVG Export Plug-In . SVG Version: 6.00 Build 0)  -->
<svg version="1.1" id="Calque_1" xmlns="http://www.w3.org/2000/svg" xmlns:xlink="http://www.w3.org/1999/xlink" x="0px" y="0px"
	 viewBox="0 0 300 300" style="enable-background:new 0 0 300 300;" xml:space="preserve">
<g id="Coche">
	<g id="Calculatrice">
		<g id="Liste_de_vérification">
		</g>
	</g>
	<g id="Verrou">
	</g>
</g>
<g>
	<path d="M83.6,47l26,28.5c0,0-85.5,37.4-48.1,135.4l0.9,2.5l24.8-14.1L74.1,270L7.1,249.1l26.7-17.5C33.7,231.7-35.2,133.3,83.6,47
		z"/>
	<path d="M79.8,282.3l11.4-36.9c0,0,75.5,54.8,141.1-27.1l1.6-2l-24.7-14.3l67.7-24.5l16,68.4l-28.6-14.1
		C264.4,231.8,214.5,341.1,79.8,282.3z"/>
	<path d="M284,169.8l-37.8,7.7c0,0,11.8-92.5-91.5-110.8l-2.6-0.5l-0.6,28.5l-54-47.6l52.3-46.9l1.3,31.8
		C151,32.2,270.8,23.5,284,169.8z"/>
</g>
</svg>
