<?xml version="1.0" encoding="utf-8"?>
<!-- Generator: Adobe Illustrator 19.2.1, SVG Export Plug-In . SVG Version: 6.00 Build 0)  -->
<svg version="1.1" id="Calque_1" xmlns="http://www.w3.org/2000/svg" xmlns:xlink="http://www.w3.org/1999/xlink" x="0px" y="0px"
	 viewBox="0 0 300 300" style="enable-background:new 0 0 300 300;" xml:space="preserve">
<g id="Coche">
	<g id="Calculatrice">
		<g id="Liste_de_vérification">
		</g>
	</g>
	<g id="Verrou">
	</g>
</g>
<g>
	<path d="M195.9,108.1h16.3c0,0,5.7,1.6,5.7,5.3c0,0,0.4,5.7-4.1,7.3h-17.9C195.9,120.7,186.2,114.6,195.9,108.1z"/>
	<path d="M250.3,108.1h16.3c0,0,5.7,1.6,5.7,5.3c0,0,0.4,5.7-4.1,7.3h-17.9C250.3,120.7,240.5,114.6,250.3,108.1z"/>
	<path d="M141.6,108.1h16.3c0,0,5.7,1.6,5.7,5.3c0,0,0.4,5.7-4.1,7.3h-17.9C141.6,120.7,131.8,114.6,141.6,108.1z"/>
	<path d="M87.2,108.1h16.3c0,0,5.7,1.6,5.7,5.3c0,0,0.4,5.7-4.1,7.3H87.2C87.2,120.7,77.5,114.6,87.2,108.1z"/>
	<path d="M32.9,108.1h16.3c0,0,5.7,1.6,5.7,5.3c0,0,0.4,5.7-4.1,7.3H32.9C32.9,120.7,23.1,114.6,32.9,108.1z"/>
	<path d="M195.9,148.8h16.3c0,0,5.7,1.6,5.7,5.3c0,0,0.4,5.7-4.1,7.3h-17.9C195.9,161.4,186.2,155.3,195.9,148.8z"/>
	<path d="M250.3,148.8h16.3c0,0,5.7,1.6,5.7,5.3c0,0,0.4,5.7-4.1,7.3h-17.9C250.3,161.4,240.5,155.3,250.3,148.8z"/>
	<path d="M250.3,189.4h16.3c0,0,5.7,1.6,5.7,5.3c0,0,0.4,5.7-4.1,7.3h-17.9C250.3,202,240.5,195.9,250.3,189.4z"/>
	<path d="M32.9,189.4h16.3c0,0,5.7,1.6,5.7,5.3c0,0,0.4,5.7-4.1,7.3H32.9C32.9,202,23.1,195.9,32.9,189.4z"/>
	<path d="M141.6,148.8h16.3c0,0,5.7,1.6,5.7,5.3c0,0,0.4,5.7-4.1,7.3h-17.9C141.6,161.4,131.8,155.3,141.6,148.8z"/>
	<path d="M87.2,148.8h16.3c0,0,5.7,1.6,5.7,5.3c0,0,0.4,5.7-4.1,7.3H87.2C87.2,161.4,77.5,155.3,87.2,148.8z"/>
	<path d="M32.9,148.8h16.3c0,0,5.7,1.6,5.7,5.3c0,0,0.4,5.7-4.1,7.3H32.9C32.9,161.4,23.1,155.3,32.9,148.8z"/>
	<path d="M87.4,189.4h125.2c0,0,4.9,2.4,4.9,6.3c0,0-0.4,6.3-3.7,6.3H87.4C87.4,202,78.1,195.5,87.4,189.4z"/>
	<path d="M294.4,81.1h-139V41.4l0-0.2c0-0.1,0.1-5.4,7.2-10.6h31.1c1.3,0.4,5.3,2.5,6.1,10.4c0.2,2.7,1.8,21.5,15.1,22.1l42.3,0.4
		l0.7-0.2c3.6-1,9.7-4.9,10.2-13.5l0-42.2h-10v41.7c-0.2,2.6-1.6,3.7-2.4,4.1l-40.4-0.4c-3.3-0.2-5.2-8.6-5.5-12.8l0-0.2
		c-1.7-17-14-19.4-14.5-19.5l-0.4-0.1h-35.3l-1.3,0.8c-10.4,6.9-12.9,15.8-12.8,20.1v39.6H6.5c-2.8,0-5,2.2-5,5V224c0,2.8,2.2,5,5,5
		h287.9c2.8,0,5-2.2,5-5V86.1C299.4,83.4,297.1,81.1,294.4,81.1z M289.4,219H11.5V91.1h277.9V219z"/>
</g>
</svg>
