<?xml version="1.0" encoding="utf-8"?>
<!-- Generator: Adobe Illustrator 19.2.1, SVG Export Plug-In . SVG Version: 6.00 Build 0)  -->
<svg version="1.1" id="Calque_1" xmlns="http://www.w3.org/2000/svg" xmlns:xlink="http://www.w3.org/1999/xlink" x="0px" y="0px"
	 viewBox="0 0 300 300" style="enable-background:new 0 0 300 300;" xml:space="preserve">
<path d="M280,150c0,71.7-58.3,130-130,130c-71.7,0-130-58.3-130-130C20,78.3,78.3,20,150,20c40.5,0,77.8,18.5,102.3,50H220v20h60
	c5.5,0,10-4.5,10-10V20h-20v40.1C241.7,22.3,197.8,0,150,0C67.3,0,0,67.3,0,150c0,82.7,67.3,150,150,150c82.7,0,150-67.3,150-150
	H280z"/>
<g>
	<path d="M112.4,196.9c8.1,4.9,19.8,8.9,32.2,8.9c18.4,0,29.1-9.5,29.1-23.4c0-12.8-7.4-20.1-26.2-27.2
		c-22.7-7.9-36.8-19.5-36.8-38.8c0-21.3,18-37.2,45-37.2c14.2,0,24.6,3.3,30.8,6.7l-5,14.4c-4.5-2.4-13.8-6.5-26.4-6.5
		c-19,0-26.2,11.2-26.2,20.5c0,12.8,8.5,19.1,27.7,26.4c23.5,8.9,35.5,20.1,35.5,40.2c0,21.1-15.9,39.6-48.7,39.6
		c-13.4,0-28.1-4.1-35.5-8.9L112.4,196.9z"/>
</g>
<g>
	<line x1="150" y1="69.1" x2="150" y2="230.2"/>
	<path d="M150,232.1c-3.3,0-6-0.9-6-1.9v-161c0-1.1,2.7-1.9,6-1.9s6,0.9,6,1.9v161C156,231.2,153.3,232.1,150,232.1z"/>
</g>
</svg>
