<?xml version="1.0" encoding="utf-8"?>
<!-- Generator: Adobe Illustrator 19.2.1, SVG Export Plug-In . SVG Version: 6.00 Build 0)  -->
<svg version="1.1" id="Calque_1" xmlns="http://www.w3.org/2000/svg" xmlns:xlink="http://www.w3.org/1999/xlink" x="0px" y="0px"
	 viewBox="0 0 512 512" style="enable-background:new 0 0 512 512;" xml:space="preserve">
<g id="doollar_de_diana">
</g>
<g>
	<path d="M508.3,372c-4-3.8-10.3-3.7-14.1,0.3l-87.5,91.9V20c0-5.5-4.5-10-10-10s-10,4.5-10,10v444.3l-87.5-91.9
		c-3.8-4-10.1-4.2-14.1-0.3c-4,3.8-4.2,10.1-0.3,14.1l102.5,107.7c0.4,0.4,0.8,0.8,1.3,1.1c1.8,2.6,4.8,4.3,8.2,4.3
		c3.4,0,6.4-1.7,8.2-4.3c0.4-0.4,0.9-0.7,1.3-1.1l102.5-107.7C512.5,382.1,512.3,375.8,508.3,372z"/>
	<path d="M124.8,20.2c-0.4-0.4-0.8-0.8-1.3-1.1c-1.8-2.6-4.8-4.3-8.2-4.3c-3.4,0-6.4,1.7-8.2,4.3c-0.4,0.4-0.9,0.7-1.3,1.1
		L3.3,127.9c-3.8,4-3.7,10.3,0.3,14.1c4,3.8,10.3,3.7,14.1-0.3l87.5-91.9V494c0,5.5,4.5,10,10,10s10-4.5,10-10V49.7l87.5,91.9
		c2,2.1,4.6,3.1,7.2,3.1c2.5,0,5-0.9,6.9-2.8c4-3.8,4.2-10.1,0.3-14.1L124.8,20.2z"/>
</g>
</svg>
