<?xml version="1.0" encoding="utf-8"?>
<!-- Generator: Adobe Illustrator 19.2.1, SVG Export Plug-In . SVG Version: 6.00 Build 0)  -->
<svg version="1.1" id="Calque_1" xmlns="http://www.w3.org/2000/svg" xmlns:xlink="http://www.w3.org/1999/xlink" x="0px" y="0px"
	 viewBox="0 0 300 300" style="enable-background:new 0 0 300 300;" xml:space="preserve">
<style type="text/css">
	.st0{fill:#010202;}
	.st1{fill:#FFFFFF;}
</style>
<g id="Coche">
	<g id="Calculatrice">
		<g id="Liste_de_vérification">
		</g>
	</g>
	<g id="Verrou">
	</g>
</g>
<g>
	<path class="st0" d="M65.5,83.9c0,0-2.1-37.9,31.2-64.9c0,0,17.9-15.2,41.9-18.2s44.5,4.9,54.8,11.2c10.3,6.4,28.6,19.2,37.8,49.2
		c0,0,1.6,4.5,2.9,15.6l0.2,2.4l0.2,70.5l24.8,0.3c0,0,6.9,0.7,7.9,7.7c0,2.5,0,2.5,0,2.5l0.1,13.6V274v16.6c0,0,0.7,6.8-7.8,9.2
		H40.3c0,0-5.5-0.2-7.7-7.4v-3.1v-94.8v-36.9c0,0,0.4-3.7,3.7-6.1s3.5-1.7,3.5-1.7l133.5,0h28.3V82.6c0,0,1.2-19.9-18.5-37.6
		s-45.5-10.7-45.5-10.7s-20.2,3.1-33.5,26.4c0,0-6.8,12.7-5.8,23.4L65.5,83.9z"/>
	<path class="st1" d="M143.7,215.5l-11.4,33.1h35.3l-11.4-33.1c0,0,8-2.1,11.5-11.7c0,0,4.8-13.6-8.4-22c0,0-11.2-7.4-22.5,2.7
		c0,0-7.4,6.5-5.4,16.9C133.5,211.7,143,215.6,143.7,215.5z"/>
</g>
</svg>
