<?xml version="1.0" encoding="utf-8"?>
<!-- Generator: Adobe Illustrator 19.2.1, SVG Export Plug-In . SVG Version: 6.00 Build 0)  -->
<svg version="1.1" id="Calque_1" xmlns="http://www.w3.org/2000/svg" xmlns:xlink="http://www.w3.org/1999/xlink" x="0px" y="0px"
	 viewBox="0 0 512 512" style="enable-background:new 0 0 512 512;" xml:space="preserve">
<g id="doollar_de_diana">
</g>
<path d="M243.2,254.7H13.3c-6.1,0-11-4.9-11-11V13c0-6.1,4.9-11,11-11h229.9c6.1,0,11,4.9,11,11v230.7
	C254.2,249.7,249.3,254.7,243.2,254.7z M24.3,232.7h207.9V24H24.3V232.7z"/>
<path d="M500.9,514H271c-6.1,0-11-4.9-11-11V272.3c0-6.1,4.9-11,11-11h229.9c6.1,0,11,4.9,11,11V503C511.9,509.1,507,514,500.9,514z
	 M282,492h207.9V283.3H282V492z"/>
<g>
	<path d="M511.8,124.5c-0.1-0.8-2.4-20.3-14.7-39.7c-11.6-18.3-34.4-40.1-77.3-40.1h-80.7L367.5,20c4.6-4,5.1-10.9,1.1-15.5
		c-4-4.6-10.9-5.1-15.5-1.1l-50.7,44c-2.4,2-3.7,5-3.8,8.1s1.2,6.1,3.5,8.2l50.7,47.3c2.1,2,4.8,3,7.5,3c2.9,0,5.9-1.2,8-3.5
		c4.1-4.4,3.9-11.4-0.5-15.5l-30.3-28.3h82.3c59.9,0,69.2,53.5,70.1,59.7v72c0,6.1,4.9,11,11,11s11-4.9,11-11v-72.7
		C511.9,125.3,511.9,124.9,511.8,124.5z"/>
	<path d="M164.2,402.3c-4.4-4.1-11.4-3.9-15.5,0.5c-4.1,4.4-3.9,11.4,0.5,15.5l30.3,28.3H97.2c-59.9,0-69.2-53.5-70.1-59.7v-72
		c0-6.1-4.9-11-11-11s-11,4.9-11,11v72.7c0,0.4,0,0.8,0.1,1.2c0.1,0.8,2.4,20.3,14.7,39.7c11.6,18.3,34.4,40.1,77.3,40.1h80.7
		l-28.4,24.7c-4.6,4-5.1,10.9-1.1,15.5c2.2,2.5,5.2,3.8,8.3,3.8c2.6,0,5.1-0.9,7.2-2.7l50.7-44c2.4-2,3.7-5,3.8-8.1
		c0.1-3.1-1.2-6.1-3.5-8.2L164.2,402.3z"/>
</g>
</svg>
