<?xml version="1.0" encoding="utf-8"?>
<!-- Generator: Adobe Illustrator 19.2.1, SVG Export Plug-In . SVG Version: 6.00 Build 0)  -->
<svg version="1.1" id="Calque_1" xmlns="http://www.w3.org/2000/svg" xmlns:xlink="http://www.w3.org/1999/xlink" x="0px" y="0px"
	 viewBox="0 0 300 300" style="enable-background:new 0 0 300 300;" xml:space="preserve">
<polygon points="199.6,278.1 11.9,278.1 11.9,2 281.8,2 281.8,207.6 267.5,207.6 267.5,16.2 26.2,16.2 26.2,263.8 199.6,263.8 "/>
<rect x="65.2" y="56.7" width="163.3" height="14.2"/>
<rect x="65.2" y="96.6" width="163.3" height="14.2"/>
<rect x="65.2" y="136.4" width="163.3" height="14.2"/>
<rect x="65.2" y="176.3" width="163.3" height="14.2"/>
<rect x="65.2" y="211.5" width="91.4" height="14.2"/>
<path d="M228.2,256.9l59.1-39.7c0,0,10.4-4.7,9,5.7l-64.7,59.5c-14.9,14.9-24.2-31.5-26.5-38.3c0,0-0.5-7.6,7.1-5.7L228.2,256.9z"/>
</svg>
