<?xml version="1.0" encoding="utf-8"?>
<!-- Generator: Adobe Illustrator 19.2.1, SVG Export Plug-In . SVG Version: 6.00 Build 0)  -->
<svg version="1.1" id="Calque_1" xmlns="http://www.w3.org/2000/svg" xmlns:xlink="http://www.w3.org/1999/xlink" x="0px" y="0px"
	 viewBox="0 0 512 512" style="enable-background:new 0 0 512 512;" xml:space="preserve">
<g id="doollar_de_diana">
</g>
<g>
	<path d="M467.6,482.2V170v-28.3v-1.5h-62.5V2.8h-29.8v137.5h-74.5V54.4H271v85.9H44.2v1.5h-0.5v340.5H6V512h497.3v-29.8H467.6z
		 M437.8,170v312.2H224.4v-140c0-8.2-6.7-14.9-14.9-14.9h-88.3c-8.2,0-14.9,6.7-14.9,14.9v140H73.5V170H437.8z M194.6,482.2H136
		V357.1h58.6V482.2z"/>
	<rect x="318.2" y="223.1" width="29.8" height="25.8"/>
	<rect x="375.3" y="223.1" width="29.8" height="25.8"/>
	<rect x="318.2" y="286.4" width="29.8" height="25.8"/>
	<rect x="375.3" y="286.4" width="29.8" height="25.8"/>
	<rect x="318.2" y="349.7" width="29.8" height="25.8"/>
	<rect x="375.3" y="349.7" width="29.8" height="25.8"/>
</g>
</svg>
